<?xml version="1.0" standalone="no"?><!DOCTYPE svg PUBLIC "-//W3C//DTD SVG 1.1//EN" "http://www.w3.org/Graphics/SVG/1.1/DTD/svg11.dtd"><svg t="1775981796002" class="icon" viewBox="0 0 1024 1024" version="1.1" xmlns="http://www.w3.org/2000/svg" p-id="8646" xmlns:xlink="http://www.w3.org/1999/xlink" width="200" height="200"><path d="M938.666667 418.133333c-17.066667 0-34.133333-12.8-34.133334-34.133333V298.666667c0-110.933333-72.533333-179.2-179.2-179.2H298.666667C187.733333 119.466667 119.466667 187.733333 119.466667 298.666667v85.333333c0 17.066667-12.8 34.133333-34.133334 34.133333s-34.133333-17.066667-34.133333-34.133333V298.666667c0-145.066667 98.133333-247.466667 247.466667-247.466667h426.666666c145.066667 0 247.466667 98.133333 247.466667 247.466667v85.333333c0 17.066667-17.066667 34.133333-34.133333 34.133333zM725.333333 972.8H298.666667c-145.066667 0-247.466667-98.133333-247.466667-247.466667v-85.333333c0-17.066667 12.8-34.133333 34.133333-34.133333s34.133333 12.8 34.133334 34.133333v85.333333c0 110.933333 72.533333 179.2 179.2 179.2h426.666666c110.933333 0 179.2-72.533333 179.2-179.2v-85.333333c0-17.066667 12.8-34.133333 34.133334-34.133333s34.133333 12.8 34.133333 34.133333v85.333333c0 145.066667-102.4 247.466667-247.466667 247.466667z" p-id="8647"></path><path d="M699.733333 349.866667l-162.133333-85.333334c-17.066667-8.533333-38.4-8.533333-55.466667 0l-162.133333 85.333334c-8.533333 8.533333-12.8 21.333333-12.8 34.133333 0 12.8 8.533333 25.6 17.066667 34.133333l162.133333 85.333334c8.533333 4.266667 17.066667 8.533333 25.6 8.533333 8.533333 0 17.066667 0 25.6-8.533333l162.133333-85.333334c12.8-4.266667 17.066667-17.066667 17.066667-34.133333 0-12.8-4.266667-25.6-17.066667-34.133333zM456.533333 533.333333l-149.333333-76.8c-12.8-4.266667-25.6-4.266667-34.133333 0-8.533333 8.533333-17.066667 21.333333-17.066667 34.133334v140.8c0 25.6 12.8 46.933333 34.133333 55.466666l149.333334 76.8c4.266667 4.266667 8.533333 4.266667 17.066666 4.266667s12.8 0 17.066667-4.266667c12.8-8.533333 17.066667-17.066667 17.066667-29.866666v-140.8c4.266667-29.866667-8.533333-51.2-34.133334-59.733334zM750.933333 460.8c-12.8-8.533333-25.6-8.533333-34.133333 0l-149.333333 76.8c-21.333333 12.8-34.133333 34.133333-34.133334 55.466667v140.8c0 12.8 8.533333 25.6 17.066667 29.866666 4.266667 4.266667 12.8 4.266667 21.333333 4.266667 4.266667 0 12.8 0 17.066667-4.266667l149.333333-76.8c21.333333-12.8 34.133333-34.133333 34.133334-55.466666v-140.8c-4.266667-12.8-8.533333-25.6-21.333334-29.866667z" p-id="8648"></path></svg>